HIERARCHY
ROOT Hips
{
	OFFSET 0.000000 0.000000 0.000000
	CHANNELS 6 Xposition Yposition Zposition Xrotation Yrotation Zrotation
	JOINT Spine1
	{
		OFFSET 0.000000 9.372198 0.000008
		CHANNELS 6 Xposition Yposition Zposition Xrotation Yrotation Zrotation
		JOINT Neck
		{
			OFFSET 0.000000 7.471846 0.000007
			CHANNELS 6 Xposition Yposition Zposition Xrotation Yrotation Zrotation
			JOINT Head
			{
				OFFSET 0.000000 4.750920 0.613024
				CHANNELS 6 Xposition Yposition Zposition Xrotation Yrotation Zrotation
				End Site
				{
					OFFSET 0.000000 6.130202 0.000001
				}
			}
		}
		JOINT LeftShoulder
		{
			OFFSET 1.234464 6.033117 -0.162038
			CHANNELS 6 Xposition Yposition Zposition Xrotation Yrotation Zrotation
			JOINT LeftArm
			{
				OFFSET 4.404915 0.000000 0.000000
				CHANNELS 6 Xposition Yposition Zposition Xrotation Yrotation Zrotation
				JOINT LeftForeArm
				{
					OFFSET 8.637336 0.000000 0.000000
					CHANNELS 6 Xposition Yposition Zposition Xrotation Yrotation Zrotation
					JOINT LeftHand
					{
						OFFSET 8.027266 0.000000 0.000000
						CHANNELS 6 Xposition Yposition Zposition Xrotation Yrotation Zrotation
						End Site
						{
							OFFSET 4.597650 0.000000 0.000000
						}
					}
				}
			}
		}
		JOINT RightShoulder
		{
			OFFSET -1.217436 6.033117 -0.162038
			CHANNELS 6 Xposition Yposition Zposition Xrotation Yrotation Zrotation
			JOINT RightArm
			{
				OFFSET -4.404915 0.000000 0.000000
				CHANNELS 6 Xposition Yposition Zposition Xrotation Yrotation Zrotation
				JOINT RightForeArm
				{
					OFFSET -8.637334 0.000000 0.000000
					CHANNELS 6 Xposition Yposition Zposition Xrotation Yrotation Zrotation
					JOINT RightHand
					{
						OFFSET -8.027271 0.000000 0.000000
						CHANNELS 6 Xposition Yposition Zposition Xrotation Yrotation Zrotation
						End Site
						{
							OFFSET -4.597651 0.000000 0.000000
						}
					}
				}
			}
		}
	}
	JOINT LeftUpLeg
	{
		OFFSET 3.065109 0.000000 0.000000
		CHANNELS 6 Xposition Yposition Zposition Xrotation Yrotation Zrotation
		JOINT LeftLeg
		{
			OFFSET 0.000000 -12.890781 -0.000008
			CHANNELS 6 Xposition Yposition Zposition Xrotation Yrotation Zrotation
			JOINT LeftFoot
			{
				OFFSET 0.000000 -13.514515 -0.000008
				CHANNELS 6 Xposition Yposition Zposition Xrotation Yrotation Zrotation
				JOINT LeftToeBase
				{
					OFFSET 0.000000 -1.992322 4.597659
					CHANNELS 6 Xposition Yposition Zposition Xrotation Yrotation Zrotation
					End Site
					{
						OFFSET 0.000000 0.000000 1.226043
					}
				}
			}
		}
	}
	JOINT RightUpLeg
	{
		OFFSET -3.065109 0.000000 0.000000
		CHANNELS 6 Xposition Yposition Zposition Xrotation Yrotation Zrotation
		JOINT RightLeg
		{
			OFFSET 0.000000 -12.890781 -0.000008
			CHANNELS 6 Xposition Yposition Zposition Xrotation Yrotation Zrotation
			JOINT RightFoot
			{
				OFFSET 0.000000 -13.514515 -0.000008
				CHANNELS 6 Xposition Yposition Zposition Xrotation Yrotation Zrotation
				JOINT RightToeBase
				{
					OFFSET 0.000000 -1.992322 4.597659
					CHANNELS 6 Xposition Yposition Zposition Xrotation Yrotation Zrotation
					End Site
					{
						OFFSET 0.000000 0.000000 1.226043
					}
				}
			}
		}
	}
}
MOTION
Frames: 6
Frame Time: 0.016667
3.835788 25.202053 -0.529676 10.478289 -4.024164 4.636980 -0.000000 9.372190 0.000005 -5.600201 4.070270 4.271742 0.000001 7.471841 0.000004 6.589933 -3.864262 -0.869572 0.000001 4.750928 0.613022 17.970467 -3.810410 8.455048 1.234462 6.033106 -0.162038 -7.751454 -0.110468 18.311093 4.404918 -0.000005 -0.000000 7.711891 -19.596156 -18.710340 8.637332 0.000007 -0.000004 4.489580 -42.297186 35.291232 8.027272 -0.000003 0.000001 -10.469754 3.386136 30.698620 -1.217428 6.033115 -0.162038 -5.828797 2.667380 -13.301136 -4.404917 -0.000006 0.000001 -1.110632 58.231980 55.569743 -8.637346 -0.000004 -0.000003 163.751818 66.368204 -198.697197 -8.027267 -0.000004 -0.000014 -44.640211 -1.912943 -7.957264 3.065109 -0.000011 0.000000 -31.002078 19.389109 21.362019 -0.000000 -12.890771 -0.000003 39.157792 9.360704 -15.349655 -0.000005 -13.514515 -0.000007 -8.131336 18.014359 -0.778803 -0.000000 -1.992322 4.597658 0.000001 -0.000009 -0.000003 -3.065106 -0.000008 0.000000 -21.570866 7.504578 -35.520747 0.000007 -12.890777 -0.000004 32.840455 -22.951848 30.996280 0.000004 -13.514525 -0.000008 1.369879 -27.980140 8.770348 -0.000000 -1.992322 4.597660 -0.000004 -0.000002 -0.000002 
3.830688 25.203762 -0.538598 10.416866 -3.971869 4.579272 0.000000 9.372190 0.000007 -5.464857 4.255166 4.223312 -0.000000 7.471841 0.000007 6.704367 -4.266883 -0.841513 0.000000 4.750926 0.613024 18.579503 -4.156543 9.072702 1.234462 6.033113 -0.162038 -7.732461 -0.214799 18.180915 4.404924 0.000005 -0.000001 7.745930 -20.013793 -18.839403 8.637330 -0.000003 0.000001 5.372069 -42.842850 36.404007 8.027260 0.000014 -0.000002 -10.205099 3.125044 31.313443 -1.217430 6.033113 -0.162038 -5.802156 2.783864 -13.172302 -4.404915 -0.000018 0.000001 -0.206659 59.762591 55.044979 -8.637338 0.000001 -0.000005 165.538896 66.306090 -200.673567 -8.027271 -0.000009 -0.000000 -45.727912 -0.830886 -8.866199 3.065110 -0.000008 -0.000001 -30.984818 19.323346 21.388695 0.000000 -12.890771 -0.000007 39.149340 9.331348 -15.327593 -0.000003 -13.514515 -0.000008 -8.115139 18.033544 -0.809932 0.000000 -1.992319 4.597659 -0.000005 -0.000007 0.000000 -3.065109 -0.000007 -0.000001 -20.848625 8.161568 -35.589438 0.000002 -12.890777 -0.000007 32.766320 -23.630163 31.596585 0.000003 -13.514515 -0.000008 1.352599 -28.166889 8.654550 -0.000000 -1.992322 4.597655 -0.000003 -0.000001 -0.000000 
3.824691 25.205597 -0.550718 10.371227 -3.907623 4.495781 0.000000 9.372206 0.000007 -5.295449 4.396231 4.174636 -0.000001 7.471848 0.000004 6.770113 -4.661982 -0.817643 0.000000 4.750936 0.613024 19.156787 -4.492131 9.677539 1.234460 6.033113 -0.162038 -7.770186 -0.282456 18.093962 4.404913 0.000010 -0.000000 7.844660 -20.417659 -19.006052 8.637329 -0.000002 0.000000 6.396291 -43.327237 37.716585 8.027258 0.000011 -0.000002 -9.910265 3.010441 31.687956 -1.217433 6.033118 -0.162038 -5.828914 2.938189 -13.079163 -4.404917 -0.000002 0.000001 0.866079 60.803300 54.538900 -8.637342 -0.000002 -0.000004 169.168090 65.613475 -203.886734 -8.027271 -0.000006 -0.000005 -47.292298 -1.965668 -7.403687 3.065106 -0.000001 -0.000000 -31.010681 19.243003 21.439653 0.000001 -12.890772 -0.000003 39.141024 9.242454 -15.296682 -0.000003 -13.514517 -0.000008 -8.110041 18.095553 -0.785500 0.000007 -1.992327 4.597660 0.000001 -0.000009 0.000002 -3.065109 0.000002 -0.000000 -20.814571 8.084784 -35.506530 0.000002 -12.890777 -0.000004 32.766265 -23.690026 31.585780 0.000008 -13.514523 -0.000008 1.383011 -28.137328 8.678327 -0.000000 -1.992322 4.597662 0.000003 -0.000002 0.000002 
3.819624 25.205746 -0.561197 10.307480 -3.833749 4.422096 0.000000 9.372193 0.000007 -5.139533 4.557090 4.119621 0.000000 7.471857 0.000004 6.896054 -5.052611 -0.818263 0.000000 4.750918 0.613021 19.667619 -4.820980 10.354571 1.234461 6.033131 -0.162038 -7.751317 -0.401731 17.989523 4.404915 -0.000002 -0.000000 7.877060 -20.734632 -19.195436 8.637334 -0.000005 0.000001 7.356495 -43.993778 38.973712 8.027260 -0.000009 -0.000000 -9.712172 2.772748 32.149256 -1.217432 6.033127 -0.162038 -5.831351 3.065602 -12.968723 -4.404918 -0.000005 0.000004 2.104816 61.923902 53.724721 -8.637341 0.000005 -0.000000 172.273408 65.064566 -206.668219 -8.027271 -0.000007 -0.000001 -48.625435 -2.172009 -6.869937 3.065109 -0.000004 -0.000001 -31.043346 19.213717 21.483728 -0.000001 -12.890778 -0.000003 39.163868 9.223719 -15.232927 -0.000003 -13.514519 -0.000008 -8.097036 18.045775 -0.795958 0.000001 -1.992319 4.597659 0.000002 -0.000000 0.000003 -3.065106 -0.000002 -0.000000 -21.011217 7.729843 -35.422809 -0.000004 -12.890774 -0.000004 32.814537 -23.482221 31.389231 0.000005 -13.514517 -0.000008 1.418850 -28.021664 8.729283 -0.000000 -1.992322 4.597658 -0.000002 0.000007 -0.000000 
3.816336 25.205715 -0.572087 10.266182 -3.756697 4.352381 -0.000000 9.372193 0.000008 -4.998531 4.701991 4.049866 -0.000001 7.471834 0.000002 6.987181 -5.454806 -0.759223 0.000001 4.750922 0.613021 20.216105 -5.154001 10.909194 1.234461 6.033103 -0.162041 -7.768393 -0.508002 17.883430 4.404920 0.000009 -0.000000 7.869586 -21.025043 -19.411657 8.637330 -0.000015 -0.000002 8.500077 -44.582960 40.328388 8.027255 -0.000002 0.000004 -9.364309 2.545175 32.526857 -1.217433 6.033103 -0.162038 -5.876889 3.237741 -12.890554 -4.404921 -0.000005 0.000007 3.640310 63.224548 52.603969 -8.637339 -0.000001 0.000000 175.755507 64.367703 -209.694621 -8.027283 -0.000000 0.000004 -50.049997 -1.828575 -7.585498 3.065109 -0.000007 0.000001 -31.067901 19.139006 21.516339 -0.000001 -12.890777 -0.000004 39.163068 9.160639 -15.209247 -0.000003 -13.514521 -0.000013 -8.103546 18.073014 -0.773343 0.000001 -1.992325 4.597660 -0.000001 0.000002 0.000002 -3.065109 -0.000008 0.000000 -20.672160 7.971486 -35.433427 0.000006 -12.890779 -0.000004 32.785731 -23.814279 31.676266 0.000007 -13.514520 -0.000008 1.424214 -28.089735 8.696133 -0.000000 -1.992322 4.597664 -0.000001 -0.000006 -0.000002 
3.812592 25.204834 -0.583697 10.245099 -3.676506 4.263342 -0.000000 9.372190 0.000007 -4.826210 4.872453 3.995140 0.000001 7.471850 0.000008 7.080446 -5.899454 -0.623856 0.000001 4.750929 0.613028 20.649810 -5.535099 11.400451 1.234468 6.033129 -0.162038 -7.759330 -0.648719 17.810895 4.404911 0.000006 -0.000000 7.891333 -21.322684 -19.612449 8.637327 0.000003 -0.000001 9.657818 -45.141646 41.814001 8.027262 0.000000 0.000008 -9.119147 2.503217 32.632185 -1.217429 6.033125 -0.162038 -5.895744 3.335290 -12.810878 -4.404915 -0.000006 0.000002 5.950466 64.522796 50.807858 -8.637338 0.000003 0.000003 176.646683 64.256453 -210.931036 -8.027273 -0.000002 -0.000004 -51.026981 -2.444313 -5.575021 3.065106 -0.000003 -0.000000 -31.132515 19.042291 21.577201 -0.000000 -12.890768 -0.000003 39.195300 9.127039 -15.197690 -0.000005 -13.514514 -0.000015 -8.109636 18.069317 -0.756875 0.000001 -1.992322 4.597662 0.000001 -0.000007 0.000003 -3.065106 0.000001 -0.000000 -20.849926 7.642539 -35.363226 0.000003 -12.890777 -0.000004 32.762403 -23.587433 31.539652 0.000008 -13.514523 -0.000008 1.467110 -28.058760 8.744712 -0.000000 -1.992322 4.597658 -0.000003 -0.000006 0.000002 
